<?xml version="1.0" encoding="UTF-8"?>
<!DOCTYPE svg PUBLIC "-//W3C//DTD SVG 1.1//EN" "http://www.w3.org/Graphics/SVG/1.1/DTD/svg11.dtd">
<!-- Creator: CorelDRAW -->
<svg xmlns="http://www.w3.org/2000/svg" xml:space="preserve" width="85.3193mm" height="21.377mm" version="1.1" style="shape-rendering:geometricPrecision; text-rendering:geometricPrecision; image-rendering:optimizeQuality; fill-rule:evenodd; clip-rule:evenodd"
viewBox="0 0 1721.71 431.38"
 xmlns:xlink="http://www.w3.org/1999/xlink"
 xmlns:xodm="http://www.corel.com/coreldraw/odm/2003">
 <defs>
  <style type="text/css">
   <![CDATA[
    .fil0 {fill:#ED3237;fill-rule:nonzero}
   ]]>
  </style>
 </defs>
 <g id="Camada_x0020_1">
  <metadata id="CorelCorpID_0Corel-Layer"/>
  <path class="fil0" d="M1721.71 0l-261.34 0 -428.21 431.38 261.33 0 428.22 -431.38zm-1147.75 368.65l-62.27 62.73 -230.59 0 169.34 -170.59c69.18,-68.98 146.93,-74.66 201.83,-74.66l575.38 0 -148.74 149.99 -415.66 -0.66c0,0 -58.55,2.53 -89.28,33.19zm25.6 -204.42l657.29 0.66 163.68 -164.89 -823.17 0c-50.46,0 -182.83,14.78 -279.45,111.12l-317.91 320.26 241.57 0 193.37 -194.8c54.81,-59.21 136.07,-72.35 164.62,-72.35z"/>
 </g>
</svg>