<svg xmlns="http://www.w3.org/2000/svg" viewBox="0 0 300 200"><defs>
  <linearGradient id="chrome" x1="0%" y1="0%" x2="0%" y2="100%"><stop offset="0%" style="stop-color:#f0f0f0"/><stop offset="25%" style="stop-color:#c8c8c8"/><stop offset="50%" style="stop-color:#ffffff"/><stop offset="75%" style="stop-color:#a0a0a0"/><stop offset="100%" style="stop-color:#d0d0d0"/></linearGradient>
  <linearGradient id="shine" x1="0%" y1="0%" x2="0%" y2="100%"><stop offset="0%" style="stop-color:#ffffff;stop-opacity:0.35"/><stop offset="50%" style="stop-color:#ffffff;stop-opacity:0.05"/><stop offset="100%" style="stop-color:#ffffff;stop-opacity:0"/></linearGradient>
  <clipPath id="clip"><rect x="9" y="9" width="282" height="182" rx="18"/></clipPath>
</defs>
<rect x="3" y="3" width="294" height="194" rx="22" fill="url(#chrome)" stroke="#888" stroke-width="0.5"/>
<rect x="9" y="9" width="282" height="182" fill="#00008B" clip-path="url(#clip)"/>
<rect x="9" y="9" width="141" height="91" fill="#012169" clip-path="url(#clip)"/>
<line x1="9" y1="9" x2="150" y2="100" stroke="white" stroke-width="18" clip-path="url(#clip)"/>
<line x1="150" y1="9" x2="9" y2="100" stroke="white" stroke-width="18" clip-path="url(#clip)"/>
<line x1="9" y1="9" x2="150" y2="100" stroke="#C8102E" stroke-width="10" clip-path="url(#clip)"/>
<line x1="150" y1="9" x2="9" y2="100" stroke="#C8102E" stroke-width="10" clip-path="url(#clip)"/>
<rect x="9" y="46" width="141" height="18" fill="white" clip-path="url(#clip)"/>
<rect x="71" y="9" width="18" height="91" fill="white" clip-path="url(#clip)"/>
<rect x="9" y="50" width="141" height="10" fill="#C8102E" clip-path="url(#clip)"/>
<rect x="75" y="9" width="10" height="91" fill="#C8102E" clip-path="url(#clip)"/>
<polygon points="80,120 83,132 95,132 85,139 89,151 80,144 71,151 75,139 65,132 77,132" fill="white" clip-path="url(#clip)"/>
<polygon points="220,40 222,47 229,47 224,51 226,58 220,54 214,58 216,51 211,47 218,47" fill="white" clip-path="url(#clip)"/>
<polygon points="240,100 242,107 249,107 244,111 246,118 240,114 234,118 236,111 231,107 238,107" fill="white" clip-path="url(#clip)"/>
<polygon points="200,130 202,137 209,137 204,141 206,148 200,144 194,148 196,141 191,137 198,137" fill="white" clip-path="url(#clip)"/>
<rect x="9" y="9" width="282" height="182" rx="18" fill="url(#shine)" clip-path="url(#clip)"/>
</svg>