<svg xmlns="http://www.w3.org/2000/svg" viewBox="0 0 300 200"><defs>
  <linearGradient id="chrome" x1="0%" y1="0%" x2="0%" y2="100%"><stop offset="0%" style="stop-color:#f0f0f0"/><stop offset="25%" style="stop-color:#c8c8c8"/><stop offset="50%" style="stop-color:#ffffff"/><stop offset="75%" style="stop-color:#a0a0a0"/><stop offset="100%" style="stop-color:#d0d0d0"/></linearGradient>
  <linearGradient id="shine" x1="0%" y1="0%" x2="0%" y2="100%"><stop offset="0%" style="stop-color:#ffffff;stop-opacity:0.35"/><stop offset="50%" style="stop-color:#ffffff;stop-opacity:0.05"/><stop offset="100%" style="stop-color:#ffffff;stop-opacity:0"/></linearGradient>
  <clipPath id="clip"><rect x="9" y="9" width="282" height="182" rx="18"/></clipPath>
</defs>
<rect x="3" y="3" width="294" height="194" rx="22" fill="url(#chrome)" stroke="#888" stroke-width="0.5"/>
<rect x="9" y="9" width="282" height="182" rx="18" fill="#1a6e33" clip-path="url(#clip)"/>
<polygon points="150,25 271,100 150,175 29,100" fill="#f0c000" clip-path="url(#clip)"/>
<circle cx="150" cy="100" r="46" fill="#0f2d6b" clip-path="url(#clip)"/>
<rect x="92" y="93" width="116" height="13" rx="2" fill="#ffffff" opacity="0.9" clip-path="url(#clip)"/>
<text x="150" y="103" text-anchor="middle" font-family="Arial" font-size="7" font-weight="700" fill="#003399" letter-spacing="1" clip-path="url(#clip)">ORDEM E PROGRESSO</text>
<circle cx="132" cy="87" r="2" fill="white"/><circle cx="141" cy="81" r="1.6" fill="white"/>
<circle cx="153" cy="83" r="2" fill="white"/><circle cx="162" cy="89" r="1.6" fill="white"/>
<circle cx="135" cy="112" r="1.6" fill="white"/><circle cx="146" cy="117" r="2" fill="white"/>
<circle cx="158" cy="113" r="1.6" fill="white"/><circle cx="166" cy="103" r="1.6" fill="white"/>
<rect x="9" y="9" width="282" height="182" rx="18" fill="url(#shine)" clip-path="url(#clip)"/>
</svg>